<svg width="30" height="30" viewBox="0 0 30 30" fill="none" xmlns="http://www.w3.org/2000/svg">
<path d="M30 12.0001H23.9999V18H30V12.0001Z" fill="#4CC4D2"/>
<path d="M23.999 12.0001H17.999V18H23.999V12.0001Z" fill="#00ABBF"/>
<path d="M23.999 17.9998H17.999V23.9998H23.999V17.9998Z" fill="#33A5CB"/>
<path d="M30 17.9998H23.9999V23.9998H26C28.2091 23.9998 30 22.209 30 19.9998V17.9998Z" fill="#7FC7DF"/>
<path d="M30 9.99991C30 7.79077 28.2091 5.99991 26 5.99991H23.9999V11.9999H30V9.99991Z" fill="#7FDCDF"/>
<path d="M23.999 5.99991H17.999V11.9999H23.999V5.99991Z" fill="#33C7CB"/>
<path d="M23.999 4C23.999 1.79086 22.2082 0 19.999 0H17.999V5.99997H23.999V4Z" fill="#7FE9DF"/>
<path d="M17.9995 12.0001H11.9994V18H17.9995V12.0001Z" fill="#009DBF"/>
<path d="M17.9995 5.99991H11.9994V11.9999H17.9995V5.99991Z" fill="#00C6BF"/>
<path d="M17.9995 0H11.9994V5.99997H17.9995V0Z" fill="#4CE1D2"/>
<path d="M12 0H9.99993C7.79079 0 5.99993 1.79086 5.99993 4V5.99997H12V0Z" fill="#7FE9DF"/>
<path d="M12 5.99991H5.99993V11.9999H12V5.99991Z" fill="#33C7CB"/>
<path d="M12 12.0001H5.99993V18H12V12.0001Z" fill="#00ABBF"/>
<path d="M12 17.9998H5.99993V23.9998H12V17.9998Z" fill="#38A4D6"/>
<path d="M6 6H3.99993C1.79079 6 -6.96182e-05 7.79086 -6.96182e-05 10V12H6V6Z" fill="#7FDCDF"/>
<path d="M6.00049 12.0001H0.000418663V18H6.00049V12.0001Z" fill="#4CC4D2"/>
<path d="M6.00049 17.9998H0.000418663V19.9998C0.000418663 22.209 1.79128 23.9998 4.00042 23.9998H6.00049V17.9998Z" fill="#7FC7DF"/>
<path d="M17.9995 17.9998H11.9994V23.9998H17.9995V17.9998Z" fill="#1499C6"/>
<path d="M23.999 24H17.999V29.9999H19.999C22.2082 29.9999 23.999 28.2091 23.999 25.9999V24Z" fill="#7FB9DF"/>
<path d="M12 24H5.99993V25.9999C5.99993 28.2091 7.79079 29.9999 9.99993 29.9999H12V24Z" fill="#7FB9DF"/>
<path d="M17.9995 24H11.9994V29.9999H17.9995V24Z" fill="#50A2D7"/>
<path d="M20.4675 15.2122C20.8181 15.5513 21.3866 15.5513 21.7372 15.2122C22.0877 14.8732 22.0877 14.3235 21.7372 13.9844C21.3866 13.6454 20.8181 13.6454 20.4675 13.9844C20.1169 14.3235 20.1169 14.8732 20.4675 15.2122Z" fill="white"/>
<path d="M20.0437 12.3467C20.3943 12.6858 20.9627 12.6858 21.3133 12.3467C21.6638 12.0077 21.6638 11.458 21.3133 11.119C20.9627 10.7799 20.3943 10.7799 20.0437 11.119C19.6931 11.458 19.6931 12.0077 20.0437 12.3467Z" fill="white"/>
<path d="M18.7747 10.3006C19.1253 10.6397 19.6937 10.6397 20.0443 10.3006C20.3949 9.96156 20.3949 9.41185 20.0443 9.0728C19.6937 8.73375 19.1253 8.73375 18.7747 9.0728C18.4241 9.41185 18.4241 9.96157 18.7747 10.3006Z" fill="white"/>
<path d="M16.2356 9.48211C16.5862 9.82116 17.1546 9.82116 17.5052 9.48211C17.8558 9.14305 17.8558 8.59334 17.5052 8.25429C17.1546 7.91524 16.5862 7.91524 16.2356 8.25429C15.885 8.59334 15.885 9.14305 16.2356 9.48211Z" fill="white"/>
<path d="M20.467 13.9839L17.7162 16.6442C17.5995 16.7571 17.4099 16.7571 17.2931 16.6442C17.1763 16.5312 17.1763 16.3479 17.2931 16.2349L21.3134 12.3468L20.0439 11.119L16.4467 14.5978C16.3299 14.7108 16.1403 14.7108 16.0235 14.5978C15.9067 14.4848 15.9067 14.3015 16.0235 14.1886L20.0439 10.3005L18.7742 9.07263L14.7539 12.9607C14.6371 13.0737 14.4475 13.0737 14.3307 12.9607C14.2139 12.8478 14.2139 12.6644 14.3307 12.5515L17.5047 9.48191L16.2351 8.25409L10.9451 13.37L11.2608 11.4072C11.3984 10.783 11.034 10.1769 10.4466 10.0426C9.8554 9.91451 9.26547 10.3115 9.12581 10.9311C9.12581 10.9311 8.41611 14.2909 8.10972 15.7266C7.80332 17.1623 8.05724 18.7626 9.84185 20.4885C12.7966 23.346 15.343 21.395 16.0235 20.7369C16.704 20.0788 21.7366 15.2117 21.7366 15.2117L20.467 13.9839Z" fill="white"/>
</svg>
